<svg xmlns="http://www.w3.org/2000/svg" width="500" height="71.5" viewBox="0 0 500 71.5">
  <path id="前面オブジェクトで型抜き_7" data-name="前面オブジェクトで型抜き 7" d="M560,71.5H60V0a18.814,18.814,0,0,1,6.915,1.238A19.476,19.476,0,0,1,72.367,4.5c3.255,2.7,5.9,6.361,8.462,9.9s5.21,7.2,8.466,9.905a19.488,19.488,0,0,0,5.455,3.264,19.957,19.957,0,0,0,13.84,0,19.48,19.48,0,0,0,5.453-3.264c3.256-2.7,5.9-6.364,8.462-9.9s5.206-7.2,8.459-9.9a19.467,19.467,0,0,1,5.45-3.263,19.939,19.939,0,0,1,13.831,0A19.474,19.474,0,0,1,155.7,4.5c3.255,2.7,5.9,6.361,8.462,9.9s5.21,7.2,8.466,9.905a19.488,19.488,0,0,0,5.455,3.264,19.956,19.956,0,0,0,13.84,0,19.476,19.476,0,0,0,5.453-3.264c3.255-2.7,5.9-6.363,8.462-9.9s5.206-7.2,8.459-9.9a19.467,19.467,0,0,1,5.45-3.263,19.938,19.938,0,0,1,13.831,0A19.474,19.474,0,0,1,239.027,4.5c3.255,2.7,5.9,6.361,8.462,9.9s5.21,7.2,8.466,9.905a19.487,19.487,0,0,0,5.455,3.264,19.956,19.956,0,0,0,13.839,0,19.479,19.479,0,0,0,5.453-3.264c3.255-2.7,5.9-6.362,8.463-9.9s5.207-7.2,8.463-9.9a19.479,19.479,0,0,1,5.453-3.264,19.956,19.956,0,0,1,13.838,0A19.477,19.477,0,0,1,322.372,4.5c3.255,2.7,5.9,6.362,8.462,9.9s5.208,7.2,8.463,9.9a19.48,19.48,0,0,0,5.453,3.264,19.954,19.954,0,0,0,13.839,0,19.467,19.467,0,0,0,5.452-3.264c3.254-2.7,5.9-6.363,8.459-9.9s5.2-7.2,8.456-9.9a19.457,19.457,0,0,1,5.449-3.263,19.937,19.937,0,0,1,13.829,0A19.479,19.479,0,0,1,405.686,4.5c3.255,2.7,5.9,6.36,8.463,9.9s5.212,7.2,8.47,9.907a19.5,19.5,0,0,0,5.458,3.265,19.972,19.972,0,0,0,13.846,0,19.471,19.471,0,0,0,5.454-3.264c3.255-2.7,5.9-6.363,8.459-9.9s5.2-7.2,8.457-9.9a19.463,19.463,0,0,1,5.451-3.263,19.953,19.953,0,0,1,13.837,0A19.478,19.478,0,0,1,489.033,4.5c3.255,2.7,5.9,6.362,8.463,9.9s5.208,7.2,8.463,9.9a19.481,19.481,0,0,0,5.453,3.264,19.956,19.956,0,0,0,13.839,0,19.488,19.488,0,0,0,5.454-3.264c3.256-2.7,5.9-6.364,8.466-9.9s5.208-7.2,8.463-9.9a19.477,19.477,0,0,1,5.451-3.263A18.816,18.816,0,0,1,560,0V71.5Z" transform="translate(560.001 71.5) rotate(180)" fill="#fff"/>
</svg>
