<svg xmlns="http://www.w3.org/2000/svg" width="16" height="14.17" viewBox="0 0 16 14.17">
  <g id="hot_tub" transform="translate(0 -29.285)">
    <g id="グループ_3" data-name="グループ 3" transform="translate(6.569 29.285)">
      <path id="パス_14" data-name="パス 14" d="M210.619,32.978c.166.223.343.434.5.622l.174.209c.478.582.463,1.506-.047,2.908a.052.052,0,0,0,.005.054.138.138,0,0,0,.108.05.122.122,0,0,0,.091-.037c1.363-1.377,1.621-2.184,1.6-2.62a1.626,1.626,0,0,0-.43-1.035c-.166-.223-.342-.433-.5-.62l-.176-.211c-.478-.582-.463-1.506.046-2.908a.053.053,0,0,0-.005-.054.139.139,0,0,0-.109-.05.121.121,0,0,0-.09.037c-1.363,1.377-1.621,2.185-1.6,2.62A1.624,1.624,0,0,0,210.619,32.978Z" transform="translate(-210.187 -29.285)"/>
    </g>
    <path id="パス_15" data-name="パス 15" d="M93.234,100.1c.138.185.285.361.416.517l.146.176c.4.484.386,1.255-.039,2.424a.043.043,0,0,0,0,.045.116.116,0,0,0,.091.041.1.1,0,0,0,.075-.031c1.136-1.148,1.351-1.821,1.331-2.184a1.358,1.358,0,0,0-.359-.863c-.138-.186-.286-.362-.417-.518l-.145-.175c-.4-.485-.386-1.255.039-2.424a.044.044,0,0,0,0-.044.117.117,0,0,0-.091-.042.1.1,0,0,0-.075.031c-1.136,1.148-1.351,1.821-1.331,2.183A1.354,1.354,0,0,0,93.234,100.1Z" transform="translate(-89.972 -65.621)"/>
    <path id="パス_16" data-name="パス 16" d="M343.216,100.1c.134.18.277.351.415.516l.147.177c.4.485.386,1.255-.039,2.424a.043.043,0,0,0,0,.045.116.116,0,0,0,.091.041.1.1,0,0,0,.076-.031c1.136-1.148,1.351-1.821,1.331-2.184a1.359,1.359,0,0,0-.359-.863c-.139-.186-.286-.362-.417-.518l-.145-.174c-.4-.485-.386-1.255.039-2.425a.044.044,0,0,0,0-.044.118.118,0,0,0-.091-.042.1.1,0,0,0-.075.031c-1.136,1.147-1.35,1.821-1.331,2.183A1.353,1.353,0,0,0,343.216,100.1Z" transform="translate(-332.141 -65.621)"/>
    <path id="パス_17" data-name="パス 17" d="M15.985,210.5a3.308,3.308,0,0,0-.063-.432l-.045-.171-.011-.042,0-.01c0-.009,0,.013,0-.022l0-.006-.007-.023-.028-.091a3.053,3.053,0,0,0-.129-.335,3.438,3.438,0,0,0-.3-.541,3.506,3.506,0,0,0-.545-.633c-.07-.065-.127-.11-.165-.14l-.03-.024-.023-.024,0,.008-.008-.006s.039.095.1.267a4.83,4.83,0,0,1,.2.747,3.868,3.868,0,0,1,.055.522c0,.094,0,.19,0,.288l0,.074v.023c0-.032,0-.006,0-.011v.011l0,.043-.016.176a1.124,1.124,0,0,1-.029.151c-.011.048-.016.092-.032.146l-.041.157c-.016.052-.036.1-.054.157a3.117,3.117,0,0,1-.3.619A4.206,4.206,0,0,1,13.45,212.5a6.735,6.735,0,0,1-1.544.862,9.6,9.6,0,0,1-1.87.526c-.329.062-.666.1-1.005.131-.17.014-.341.025-.512.031-.086,0-.171.009-.258.008l-.236,0-.29,0-.141,0-.12-.006c-.157-.006-.327-.018-.5-.031-.339-.034-.676-.07-1-.132a9.593,9.593,0,0,1-1.869-.527,6.742,6.742,0,0,1-1.543-.862,4.2,4.2,0,0,1-1.047-1.123,3.2,3.2,0,0,1-.456-1.241l-.018-.152,0-.027v-.016l-.005-.013v-.014l0-.085c0-.095-.007-.187,0-.282a3.826,3.826,0,0,1,.055-.522,4.864,4.864,0,0,1,.2-.747c.05-.14.083-.225.095-.254l0,0h0l0-.009-.058.046c-.038.03-.095.076-.165.14a3.516,3.516,0,0,0-.546.632,3.441,3.441,0,0,0-.3.54,2.858,2.858,0,0,0-.13.341l-.026.08-.007.02,0,.005a.062.062,0,0,1,0,.013l0,.012-.012.047-.047.194a3.887,3.887,0,0,0,.075,1.852,4.936,4.936,0,0,0,.415,1,5.659,5.659,0,0,0,.66.934A7.113,7.113,0,0,0,3.1,215.376a9.235,9.235,0,0,0,2.349.917c.088.022.178.037.267.056l.065.014c.308.064.619.118.933.156.212.023.426.046.655.055l.169.009.148,0,.29.006.344-.007c.107,0,.214-.007.322-.014.214-.009.428-.033.641-.055.312-.038.621-.091.927-.155l.079-.017c.086-.019.173-.033.258-.055a9.22,9.22,0,0,0,2.348-.917,7.11,7.11,0,0,0,1.875-1.512,5.586,5.586,0,0,0,.66-.933,4.9,4.9,0,0,0,.414-1,4.009,4.009,0,0,0,.152-.978c0-.079,0-.155,0-.231Z" transform="translate(0 -173.139)"/>
  </g>
</svg>
