<svg xmlns="http://www.w3.org/2000/svg" width="128.001" height="128.003" viewBox="0 0 128.001 128.003">
  <g id="wave" transform="translate(0.001 0.002)">
    <g id="グループ_14" data-name="グループ 14">
      <g id="グループ_6" data-name="グループ 6">
        <g id="グループ_5" data-name="グループ 5">
          <path id="パス_20" data-name="パス 20" d="M0,32H3.84c0-.486,0-.986-.026-1.472a66.667,66.667,0,0,0-.87-9.523c-.2-1.306-.461-2.611-.755-3.891-.064-.307-.141-.6-.218-.909v-.013q-.345-1.5-.768-2.957C.832,11.968.435,10.726,0,9.5V32Z" fill="#2daed0"/>
        </g>
      </g>
      <g id="グループ_11" data-name="グループ 11">
        <g id="グループ_7" data-name="グループ 7">
          <path id="パス_21" data-name="パス 21" d="M128,32H0c0-.563.013-1.139.026-1.7A63.075,63.075,0,0,1,.96,20.916c.217-1.28.486-2.56.794-3.814.064-.294.141-.6.218-.9v-.013c.243-.973.512-1.946.819-2.893A61.818,61.818,0,0,1,6.349,4.174C6.963,2.932,7.591,1.716,8.269.526h.013c.089-.18.192-.36.294-.526H119.424c.1.166.205.346.294.525h.013c.679,1.19,1.306,2.406,1.92,3.648a61.862,61.862,0,0,1,3.558,9.126c.307.947.576,1.92.819,2.893V16.2c.077.294.154.6.218.9.307,1.254.576,2.534.794,3.814a63.074,63.074,0,0,1,.934,9.382C127.987,30.861,128,31.437,128,32Z" fill="#fff"/>
          <path id="パス_22" data-name="パス 22" d="M0,32H3.84c0-.486,0-.986.026-1.472a57.842,57.842,0,0,1,.96-9.357c.218-1.28.5-2.534.806-3.776.32-1.267.666-2.509,1.075-3.725a57.27,57.27,0,0,1,3.674-8.922c.6-1.2,1.267-2.394,1.958-3.546.243-.41.486-.806.73-1.2H4.186a.391.391,0,0,1-.077.142C3.456,1.37,2.842,2.624,2.266,3.891Q1,6.638,0,9.5V32Z" fill="#2daed0"/>
          <path id="パス_23" data-name="パス 23" d="M128,9.5V32h-3.84c0-.486,0-.986-.026-1.472a57.843,57.843,0,0,0-.96-9.357c-.218-1.28-.5-2.534-.806-3.776-.32-1.267-.666-2.509-1.075-3.725a57.363,57.363,0,0,0-3.673-8.922c-.6-1.2-1.268-2.394-1.959-3.546-.243-.41-.486-.806-.729-1.2h8.883a.38.38,0,0,0,.077.141c.653,1.229,1.267,2.483,1.843,3.75Q127,6.638,128,9.5Z" fill="#2daed0"/>
        </g>
        <g id="グループ_8" data-name="グループ 8">
          <path id="パス_24" data-name="パス 24" d="M110.938,32H17.063a47.532,47.532,0,0,1,.563-7.322c.2-1.306.474-2.6.781-3.866s.666-2.483,1.075-3.7A46.4,46.4,0,0,1,23.335,8.55c.653-1.126,1.344-2.227,2.086-3.29S26.97,3.135,27.8,2.124C28.4,1.395,29.017.691,29.67,0H98.33c.653.691,1.267,1.395,1.869,2.125.832,1.011,1.626,2.061,2.381,3.136s1.433,2.163,2.086,3.29a46.471,46.471,0,0,1,3.853,8.563c.41,1.216.768,2.445,1.075,3.7s.576,2.56.781,3.866A47.509,47.509,0,0,1,110.938,32Z" fill="#fff"/>
          <path id="パス_25" data-name="パス 25" d="M35.162,0a43.089,43.089,0,0,0-3.776,3.866,37.3,37.3,0,0,0-2.419,3.059c-.755,1.05-1.459,2.138-2.112,3.251a42.693,42.693,0,0,0-3.866,8.563c-.4,1.229-.743,2.5-1.037,3.776-.294,1.306-.525,2.65-.7,4.006A42.854,42.854,0,0,0,20.9,32h-7.68a50.682,50.682,0,0,1,.755-8.768c.231-1.28.5-2.547.819-3.789s.678-2.47,1.088-3.674a50,50,0,0,1,3.84-8.614c.653-1.139,1.331-2.266,2.061-3.341.73-1.1,1.51-2.176,2.33-3.213L24.6,0H35.162Z" fill="#fafafa"/>
          <path id="パス_26" data-name="パス 26" d="M114.777,32H107.1a42.854,42.854,0,0,0-.346-5.478c-.179-1.357-.409-2.7-.7-4.006-.294-1.28-.64-2.547-1.037-3.776a42.637,42.637,0,0,0-3.866-8.563c-.653-1.114-1.357-2.2-2.112-3.251a37.519,37.519,0,0,0-2.419-3.059A42.556,42.556,0,0,0,92.838,0H103.4l.486.6c.819,1.037,1.6,2.112,2.33,3.213.73,1.075,1.408,2.2,2.061,3.341a50,50,0,0,1,3.84,8.614c.409,1.2.768,2.432,1.088,3.674s.589,2.509.819,3.789A50.562,50.562,0,0,1,114.777,32Z" fill="#fafafa"/>
        </g>
        <g id="グループ_9" data-name="グループ 9">
          <path id="パス_27" data-name="パス 27" d="M34.133,32a29.867,29.867,0,1,1,59.734,0Z" fill="#fff"/>
          <path id="パス_28" data-name="パス 28" d="M97.7,32h-7.68c0-.538-.013-1.075-.064-1.6a25.538,25.538,0,0,0-2.906-10.445A25.838,25.838,0,0,0,82.5,13.721a25.961,25.961,0,0,0-36.992,0,24.286,24.286,0,0,0-2.484,2.906,24.032,24.032,0,0,0-2.073,3.328A25.549,25.549,0,0,0,38.041,30.4c-.051.525-.064,1.062-.064,1.6H30.3a31.61,31.61,0,0,1,.2-3.674,29.943,29.943,0,0,1,.768-4.314A32.482,32.482,0,0,1,34.9,15.027a29.856,29.856,0,0,1,2.137-3.213,28.033,28.033,0,0,1,2.471-2.931A33.517,33.517,0,0,1,53.427,0H74.573A33.507,33.507,0,0,1,88.486,8.883a28.385,28.385,0,0,1,2.471,2.931,29.709,29.709,0,0,1,2.137,3.213,32.482,32.482,0,0,1,3.635,8.986,30.22,30.22,0,0,1,.768,4.314A31.581,31.581,0,0,1,97.7,32Z" fill="#fafafa"/>
        </g>
        <g id="グループ_10" data-name="グループ 10">
          <path id="パス_29" data-name="パス 29" d="M51.2,32a12.8,12.8,0,0,1,25.6,0Z" fill="#fff"/>
          <path id="パス_30" data-name="パス 30" d="M80.64,32H72.96a8.96,8.96,0,1,0-17.92,0H47.36a16.64,16.64,0,0,1,33.28,0Z" fill="#fafafa"/>
        </g>
      </g>
      <g id="グループ_13" data-name="グループ 13">
        <g id="グループ_12" data-name="グループ 12">
          <path id="パス_31" data-name="パス 31" d="M128,9.5V32h-3.84c0-.486,0-.986.026-1.472a66.667,66.667,0,0,1,.87-9.523c.205-1.306.461-2.611.755-3.891.064-.307.141-.6.217-.909v-.013q.347-1.5.768-2.957C127.168,11.968,127.565,10.726,128,9.5Z" fill="#2daed0"/>
        </g>
      </g>
    </g>
    <g id="グループ_25" data-name="グループ 25">
      <g id="グループ_19" data-name="グループ 19">
        <g id="グループ_15" data-name="グループ 15">
          <path id="パス_32" data-name="パス 32" d="M0,32V64H64c0-.563-.013-1.139-.026-1.7a63.075,63.075,0,0,0-.934-9.382c-.218-1.28-.486-2.56-.794-3.814-.064-.294-.141-.6-.218-.9v-.013c-.243-.973-.512-1.946-.819-2.893a61.819,61.819,0,0,0-3.558-9.126c-.614-1.242-1.242-2.458-1.92-3.648-.1-.179-.205-.358-.307-.525-.115-.2-.23-.41-.346-.6v-.013c-.486-.832-1-1.626-1.523-2.419-.435-.666-.87-1.318-1.331-1.958-.819-1.165-1.69-2.291-2.586-3.392a63.162,63.162,0,0,0-6.618-6.989c-.947-.858-1.933-1.7-2.944-2.509q-1.479-1.209-3.034-2.3a64.538,64.538,0,0,0-8.077-4.89c-1.165-.589-2.342-1.152-3.546-1.664S23.013,4.25,21.784,3.815A61.6,61.6,0,0,0,12.338,1.2C10.994.922,9.65.7,8.28.526H8.269C6.887.36,5.5.219,4.109.142,2.752.038,1.382,0,0,0V32Z" fill="#fff"/>
          <path id="パス_33" data-name="パス 33" d="M67.84,64H60.16c0-.486,0-.986-.026-1.472a57.842,57.842,0,0,0-.96-9.357c-.217-1.28-.5-2.534-.806-3.776-.32-1.267-.666-2.509-1.075-3.725a57.363,57.363,0,0,0-3.673-8.922c-.6-1.2-1.268-2.393-1.959-3.545-.243-.41-.486-.806-.729-1.2-.487-.768-.986-1.523-1.5-2.253h-.013c-.473-.7-.972-1.382-1.485-2.061a60.6,60.6,0,0,0-6.989-7.731c-.96-.9-1.958-1.754-2.983-2.586-.985-.819-2.009-1.6-3.059-2.342a60.194,60.194,0,0,0-8.051-4.851C25.7,9.6,24.524,9.05,23.334,8.55s-2.394-.96-3.61-1.395A58.069,58.069,0,0,0,10.38,4.749q-1.995-.364-4.031-.576c-1.344-.141-2.714-.243-4.083-.282C1.51,3.853.755,3.84,0,3.84V0H22.5c.55.192,1.088.384,1.613.6,1.254.461,2.483.973,3.686,1.523s2.406,1.126,3.584,1.741a67.648,67.648,0,0,1,8.128,5.018c1.037.742,2.061,1.523,3.046,2.33,1.011.806,1.984,1.651,2.944,2.509a69.041,69.041,0,0,1,6.49,6.758c.845.986,1.651,2.01,2.419,3.046.793,1.062,1.562,2.163,2.291,3.277.358.538.7,1.088,1.05,1.638.716,1.165,1.408,2.342,2.061,3.558a.38.38,0,0,0,.077.141c.653,1.229,1.267,2.483,1.843,3.75Q63,38.636,64,41.5c.435,1.229.832,2.47,1.2,3.738.282.973.537,1.946.768,2.944v.013c.077.307.153.614.217.922.294,1.28.551,2.586.755,3.891a66.667,66.667,0,0,1,.87,9.523C67.84,63.014,67.84,63.514,67.84,64Z" fill="#fafafa"/>
        </g>
        <g id="グループ_16" data-name="グループ 16">
          <path id="パス_34" data-name="パス 34" d="M0,32V64H46.937a47.533,47.533,0,0,0-.563-7.322c-.205-1.306-.474-2.6-.781-3.866s-.666-2.483-1.075-3.7a46.4,46.4,0,0,0-3.853-8.563c-.653-1.126-1.344-2.227-2.086-3.29S37.03,35.135,36.2,34.124c-.6-.73-1.216-1.434-1.869-2.125a1.386,1.386,0,0,0-.192-.2A44.341,44.341,0,0,0,30.5,28.325a45.952,45.952,0,0,0-8.55-5.811c-1.152-.614-2.342-1.19-3.546-1.7-1.178-.5-2.381-.96-3.61-1.37a47.349,47.349,0,0,0-9.165-2.048c-1.139-.128-2.291-.23-3.443-.282-.154-.013-.294-.013-.435-.013C1.165,17.075.589,17.062,0,17.062V32Z" fill="#fff"/>
          <path id="パス_35" data-name="パス 35" d="M50.778,64H43.1a42.855,42.855,0,0,0-.346-5.478c-.179-1.357-.409-2.7-.7-4.006-.294-1.28-.64-2.547-1.037-3.776a42.637,42.637,0,0,0-3.866-8.563c-.653-1.114-1.357-2.2-2.112-3.251a37.35,37.35,0,0,0-2.419-3.059A43.086,43.086,0,0,0,28.838,32a43.355,43.355,0,0,0-7.59-5.478,38.619,38.619,0,0,0-3.622-1.843c-1.19-.538-2.406-1.024-3.648-1.446a42.662,42.662,0,0,0-9.152-2.061c-.627-.064-1.254-.128-1.882-.166-.666-.051-1.318-.077-1.984-.09C.64,20.9.32,20.9,0,20.9v-7.68c.41,0,.806,0,1.2.013.537.013,1.063.038,1.587.064,1.318.077,2.624.192,3.917.371a49.585,49.585,0,0,1,9.178,2.1c1.216.4,2.419.845,3.6,1.344s2.368,1.037,3.507,1.626a50.116,50.116,0,0,1,8.281,5.274c1.139.9,2.253,1.843,3.315,2.842,1.2,1.126,2.355,2.317,3.456,3.546.461.525.922,1.062,1.357,1.6l.486.6c.819,1.037,1.6,2.112,2.33,3.213.73,1.075,1.408,2.2,2.061,3.341a50,50,0,0,1,3.84,8.614c.409,1.2.768,2.432,1.088,3.674s.589,2.509.819,3.789A50.544,50.544,0,0,1,50.778,64Z" fill="#fafafa"/>
        </g>
        <g id="グループ_17" data-name="グループ 17">
          <path id="パス_36" data-name="パス 36" d="M29.862,63.795V64H0V34.138a29.793,29.793,0,0,1,21.44,9.075,30.067,30.067,0,0,1,2.483,2.906,30.08,30.08,0,0,1,2.112,3.251,29.434,29.434,0,0,1,3.379,9.485A29.645,29.645,0,0,1,29.862,63.795Z" fill="#fff"/>
          <path id="パス_37" data-name="パス 37" d="M0,32v5.978a25.923,25.923,0,0,1,18.5,7.744,24.186,24.186,0,0,1,2.483,2.906,24.134,24.134,0,0,1,2.074,3.328A25.549,25.549,0,0,1,25.959,62.4c.051.525.064,1.062.064,1.6H33.7a31.61,31.61,0,0,0-.205-3.674,30.22,30.22,0,0,0-.768-4.314,32.482,32.482,0,0,0-3.635-8.986,29.717,29.717,0,0,0-2.138-3.213,28.146,28.146,0,0,0-2.47-2.931A33.5,33.5,0,0,0,10.573,32a32.423,32.423,0,0,0-6.707-1.472.038.038,0,0,0-.051,0A30.814,30.814,0,0,0,.026,30.3H0V32Z" fill="#fafafa"/>
        </g>
        <g id="グループ_18" data-name="グループ 18">
          <path id="パス_38" data-name="パス 38" d="M12.8,64H0V51.2a12.773,12.773,0,0,1,9.587,4.326,12.605,12.605,0,0,1,2.189,3.482,11.952,11.952,0,0,1,.743,2.317A13.081,13.081,0,0,1,12.8,64Z" fill="#fff"/>
          <path id="パス_39" data-name="パス 39" d="M16.64,64H8.96a4.866,4.866,0,0,0-.038-.6,8.355,8.355,0,0,0-.6-2.726A9.1,9.1,0,0,0,7.3,58.8,8.947,8.947,0,0,0,0,55.04V47.36a16.638,16.638,0,0,1,12.006,5.12,16.575,16.575,0,0,1,2.355,3.136,16.121,16.121,0,0,1,1.7,4.07,15.083,15.083,0,0,1,.473,2.522A16.374,16.374,0,0,1,16.64,64Z" fill="#fafafa"/>
        </g>
      </g>
      <g id="グループ_24" data-name="グループ 24">
        <g id="グループ_20" data-name="グループ 20">
          <path id="パス_40" data-name="パス 40" d="M128,0V64H64c0-.563.013-1.139.026-1.7a63.076,63.076,0,0,1,.934-9.382c.217-1.28.486-2.56.794-3.814.064-.307.141-.6.217-.909V48.18c.243-.973.512-1.933.819-2.88a61.819,61.819,0,0,1,3.558-9.126c.614-1.242,1.242-2.458,1.92-3.648.1-.179.205-.358.307-.525.115-.2.23-.41.346-.6v-.013c.486-.832,1-1.625,1.523-2.419.435-.666.871-1.318,1.331-1.958.819-1.165,1.69-2.291,2.586-3.392a63.162,63.162,0,0,1,6.618-6.989c.947-.858,1.933-1.7,2.944-2.509q1.479-1.209,3.034-2.3a64.538,64.538,0,0,1,8.077-4.89c1.165-.589,2.342-1.152,3.546-1.664s2.406-1.011,3.635-1.446A61.6,61.6,0,0,1,115.661,1.2C117,.922,118.349.7,119.719.526h.013c1.383-.166,2.765-.307,4.16-.384C125.248.038,126.618,0,128,0Z" fill="#fff"/>
          <path id="パス_41" data-name="パス 41" d="M128,0V3.84c-.755,0-1.51.013-2.266.051-1.37.038-2.739.141-4.083.282s-2.7.333-4.032.576a58.174,58.174,0,0,0-9.344,2.406c-1.216.435-2.419.9-3.61,1.395s-2.368,1.05-3.52,1.626a60.3,60.3,0,0,0-8.051,4.851c-1.05.742-2.074,1.523-3.059,2.342-1.024.832-2.022,1.69-2.982,2.586a60.666,60.666,0,0,0-6.989,7.731c-.512.678-1.011,1.357-1.485,2.061-.525.73-1.024,1.485-1.511,2.253-.243.4-.486.794-.729,1.2-.691,1.152-1.357,2.342-1.959,3.545a57.226,57.226,0,0,0-3.673,8.922c-.41,1.216-.755,2.458-1.075,3.725-.307,1.242-.589,2.5-.806,3.776a57.83,57.83,0,0,0-.96,9.357c-.026.486-.026.986-.026,1.472H60.16c0-.486,0-.986.026-1.472a66.812,66.812,0,0,1,.87-9.523c.205-1.306.461-2.611.755-3.891.064-.307.141-.6.218-.909v-.013q.346-1.5.768-2.957c.371-1.267.768-2.509,1.2-3.738q1-2.861,2.266-5.606c.576-1.267,1.19-2.522,1.843-3.75A.4.4,0,0,0,68.186,32c.653-1.216,1.344-2.394,2.061-3.558.346-.55.691-1.1,1.05-1.638.73-1.114,1.5-2.215,2.291-3.277.768-1.037,1.574-2.061,2.419-3.046a68.812,68.812,0,0,1,6.49-6.758c.96-.858,1.933-1.7,2.944-2.509.986-.806,2.01-1.587,3.046-2.33a67.647,67.647,0,0,1,8.128-5.018c1.177-.614,2.368-1.2,3.584-1.741S102.631,1.063,103.885.6c.525-.218,1.063-.41,1.613-.6H128Z" fill="#fafafa"/>
        </g>
        <g id="グループ_21" data-name="グループ 21">
          <path id="パス_42" data-name="パス 42" d="M128,17.062V64H81.063a47.532,47.532,0,0,1,.563-7.322c.205-1.306.474-2.6.781-3.866s.666-2.483,1.075-3.7a46.4,46.4,0,0,1,3.853-8.563c.653-1.126,1.344-2.227,2.086-3.29s1.549-2.125,2.381-3.136c.6-.73,1.216-1.434,1.869-2.125a1.386,1.386,0,0,1,.192-.2A44.342,44.342,0,0,1,97.5,28.325a45.926,45.926,0,0,1,8.551-5.811c1.152-.614,2.342-1.19,3.546-1.7,1.177-.5,2.381-.96,3.609-1.37a47.349,47.349,0,0,1,9.165-2.048c1.139-.128,2.291-.23,3.443-.282.154-.013.294-.013.435-.013C126.835,17.075,127.411,17.062,128,17.062Z" fill="#fff"/>
          <path id="パス_43" data-name="パス 43" d="M128,13.222V20.9c-.32,0-.64,0-.96.013-.666.013-1.318.038-1.984.09-.627.038-1.254.1-1.882.166a42.6,42.6,0,0,0-9.152,2.061c-1.242.422-2.458.909-3.648,1.446a38.376,38.376,0,0,0-3.622,1.843,42.983,42.983,0,0,0-11.366,9.344,37.518,37.518,0,0,0-2.419,3.059c-.755,1.05-1.459,2.138-2.112,3.251a42.693,42.693,0,0,0-3.866,8.563c-.4,1.229-.743,2.5-1.037,3.776-.294,1.306-.525,2.65-.7,4.006A42.854,42.854,0,0,0,84.9,64h-7.68a50.682,50.682,0,0,1,.755-8.768c.231-1.28.5-2.547.819-3.789s.678-2.47,1.088-3.674a50,50,0,0,1,3.84-8.614c.653-1.139,1.331-2.266,2.061-3.341.73-1.1,1.51-2.176,2.33-3.213L88.6,32c.435-.538.9-1.075,1.357-1.6,1.1-1.229,2.253-2.419,3.456-3.546,1.063-1,2.176-1.946,3.315-2.842a50.167,50.167,0,0,1,8.282-5.274c1.139-.589,2.317-1.139,3.507-1.626s2.381-.947,3.6-1.344a49.494,49.494,0,0,1,9.177-2.1c1.293-.179,2.6-.294,3.917-.371.525-.026,1.05-.051,1.587-.064C127.194,13.222,127.59,13.222,128,13.222Z" fill="#fafafa"/>
        </g>
        <g id="グループ_22" data-name="グループ 22">
          <path id="パス_44" data-name="パス 44" d="M128,34.138V64H98.137v-.205a29.881,29.881,0,0,1,.448-4.941,29.458,29.458,0,0,1,3.379-9.485A29.869,29.869,0,0,1,128,34.138Z" fill="#fff"/>
          <path id="パス_45" data-name="パス 45" d="M128,30.3v7.68a25.923,25.923,0,0,0-18.5,7.744,25.838,25.838,0,0,0-4.556,6.234A25.549,25.549,0,0,0,102.042,62.4c-.051.525-.064,1.062-.064,1.6H94.3a31.611,31.611,0,0,1,.205-3.674,29.943,29.943,0,0,1,.768-4.314,32.482,32.482,0,0,1,3.635-8.986,29.857,29.857,0,0,1,2.137-3.213,28.033,28.033,0,0,1,2.471-2.931A33.5,33.5,0,0,1,117.428,32a32.423,32.423,0,0,1,6.707-1.472.038.038,0,0,1,.051,0,30.814,30.814,0,0,1,3.789-.23Z" fill="#fafafa"/>
        </g>
        <g id="グループ_23" data-name="グループ 23">
          <path id="パス_46" data-name="パス 46" d="M128,51.2V64H115.2a13.081,13.081,0,0,1,.282-2.675,11.928,11.928,0,0,1,.743-2.317,12.582,12.582,0,0,1,2.189-3.482A12.769,12.769,0,0,1,128,51.2Z" fill="#fff"/>
          <path id="パス_47" data-name="パス 47" d="M128,47.36v7.68a8.947,8.947,0,0,0-7.3,3.763,9.1,9.1,0,0,0-1.024,1.869,8.386,8.386,0,0,0-.6,2.726,4.679,4.679,0,0,0-.038.6h-7.68a16.628,16.628,0,0,1,.1-1.792,15.1,15.1,0,0,1,.473-2.522,16.118,16.118,0,0,1,1.7-4.07A16.566,16.566,0,0,1,128,47.36Z" fill="#fafafa"/>
        </g>
      </g>
    </g>
    <g id="グループ_35" data-name="グループ 35">
      <g id="グループ_27" data-name="グループ 27">
        <g id="グループ_26" data-name="グループ 26">
          <path id="パス_48" data-name="パス 48" d="M3.84,96H0V73.5c.435,1.229.832,2.47,1.2,3.738q.423,1.459.768,2.957v.026c.077.307.153.589.217.9.294,1.28.551,2.586.755,3.891a66.667,66.667,0,0,1,.87,9.523C3.84,95.014,3.84,95.514,3.84,96Z" fill="#2daed0"/>
        </g>
      </g>
      <g id="グループ_32" data-name="グループ 32">
        <g id="グループ_28" data-name="グループ 28">
          <path id="パス_49" data-name="パス 49" d="M0,96a64,64,0,0,1,128,0Z" fill="#fff"/>
          <path id="パス_50" data-name="パス 50" d="M128,73.5V96h-3.84c0-.486,0-.986-.026-1.472a57.843,57.843,0,0,0-.96-9.357c-.218-1.28-.5-2.534-.806-3.776-.32-1.267-.666-2.509-1.075-3.725a57.363,57.363,0,0,0-3.673-8.922c-.6-1.2-1.268-2.394-1.959-3.546-.243-.41-.486-.806-.729-1.2-.487-.768-.986-1.523-1.511-2.253-.473-.7-.973-1.382-1.485-2.061a60.524,60.524,0,0,0-6.989-7.731c-.96-.9-1.958-1.754-2.982-2.586-.985-.819-2.009-1.6-3.059-2.342a60.193,60.193,0,0,0-8.051-4.851c-1.152-.576-2.33-1.126-3.52-1.626s-2.394-.96-3.61-1.4a58.176,58.176,0,0,0-9.344-2.407q-2-.365-4.032-.576c-1.344-.141-2.713-.243-4.083-.282-.756-.036-1.511-.049-2.266-.049s-1.51.013-2.266.051c-1.37.038-2.739.141-4.083.282s-2.7.333-4.032.576a58.071,58.071,0,0,0-9.344,2.407c-1.216.435-2.419.9-3.61,1.4s-2.368,1.05-3.52,1.626a60.3,60.3,0,0,0-8.051,4.851c-1.05.742-2.074,1.523-3.059,2.342-1.024.832-2.022,1.69-2.983,2.586a60.666,60.666,0,0,0-6.989,7.731c-.512.678-1.011,1.357-1.485,2.061-.525.73-1.024,1.485-1.511,2.253-.243.4-.486.794-.729,1.2-.691,1.152-1.357,2.342-1.959,3.546a57.226,57.226,0,0,0-3.673,8.922C6.3,78.888,5.951,80.13,5.631,81.4c-.307,1.242-.589,2.5-.806,3.776a57.831,57.831,0,0,0-.96,9.357c-.025.484-.025.984-.025,1.47H0V73.5q1-2.86,2.266-5.606c.576-1.267,1.19-2.522,1.843-3.75A.407.407,0,0,0,4.186,64c.653-1.216,1.344-2.394,2.061-3.558.346-.55.691-1.1,1.05-1.638.73-1.114,1.5-2.215,2.291-3.277.768-1.037,1.574-2.061,2.419-3.046a68.812,68.812,0,0,1,6.49-6.758c.96-.858,1.933-1.7,2.944-2.509.986-.806,2.01-1.587,3.046-2.33a67.648,67.648,0,0,1,8.128-5.018c1.178-.614,2.368-1.2,3.584-1.741s2.432-1.063,3.686-1.523c.525-.218,1.063-.41,1.613-.6,1.946-.691,3.942-1.293,5.965-1.792q.979-.269,1.958-.461h.013c.678-.166,1.357-.294,2.048-.422s1.382-.256,2.074-.358,1.408-.218,2.125-.294h.013c.691-.09,1.37-.167,2.061-.23,2.061-.179,4.134-.282,6.246-.282s4.186.1,6.246.282c.691.064,1.37.141,2.061.23h.013c.717.077,1.421.179,2.125.294s1.382.218,2.074.358,1.382.256,2.061.422q.979.192,1.958.461c2.022.5,4.019,1.1,5.965,1.792.55.192,1.088.384,1.613.6,1.254.461,2.483.973,3.686,1.523s2.407,1.126,3.584,1.741a67.647,67.647,0,0,1,8.128,5.018c1.037.742,2.061,1.523,3.046,2.33,1.011.806,1.984,1.651,2.944,2.509a69.04,69.04,0,0,1,6.49,6.758c.845.986,1.651,2.01,2.419,3.046.794,1.062,1.562,2.163,2.291,3.277.358.538.7,1.088,1.05,1.638.716,1.165,1.408,2.342,2.061,3.558a.38.38,0,0,0,.077.141c.653,1.229,1.267,2.483,1.843,3.75Q127,70.637,128,73.5Z" fill="#fafafa"/>
        </g>
        <g id="グループ_29" data-name="グループ 29">
          <path id="パス_51" data-name="パス 51" d="M17.067,96a46.933,46.933,0,0,1,93.866,0Z" fill="#fff"/>
          <path id="パス_52" data-name="パス 52" d="M114.774,96h-7.68a43.094,43.094,0,0,0-86.188,0h-7.68a50.774,50.774,0,0,1,101.548,0Z" fill="#fafafa"/>
        </g>
        <g id="グループ_30" data-name="グループ 30">
          <path id="パス_53" data-name="パス 53" d="M34.133,96a29.867,29.867,0,1,1,59.734,0Z" fill="#fff"/>
          <path id="パス_54" data-name="パス 54" d="M97.706,96h-7.68a26.026,26.026,0,1,0-52.052,0h-7.68a33.706,33.706,0,1,1,67.412,0Z" fill="#fafafa"/>
        </g>
        <g id="グループ_31" data-name="グループ 31">
          <path id="パス_55" data-name="パス 55" d="M51.2,96a12.8,12.8,0,1,1,25.6,0Z" fill="#fff"/>
          <path id="パス_56" data-name="パス 56" d="M80.64,96H72.96a8.96,8.96,0,1,0-17.92,0H47.36a16.64,16.64,0,0,1,33.28,0Z" fill="#fafafa"/>
        </g>
      </g>
      <g id="グループ_34" data-name="グループ 34">
        <g id="グループ_33" data-name="グループ 33">
          <path id="パス_57" data-name="パス 57" d="M128,73.5V96h-3.84c0-.486,0-.986.026-1.472a66.667,66.667,0,0,1,.87-9.523c.205-1.306.461-2.611.755-3.891.064-.307.141-.589.217-.9v-.026q.347-1.5.768-2.957C127.168,75.968,127.565,74.726,128,73.5Z" fill="#2daed0"/>
        </g>
      </g>
    </g>
    <g id="グループ_46" data-name="グループ 46">
      <g id="グループ_40" data-name="グループ 40">
        <g id="グループ_36" data-name="グループ 36">
          <path id="パス_58" data-name="パス 58" d="M64,128H0V64c1.382,0,2.752.038,4.109.141,1.395.077,2.778.218,4.16.384h.013c1.37.179,2.714.4,4.058.678a61.712,61.712,0,0,1,9.446,2.611c1.229.435,2.445.922,3.635,1.446s2.381,1.075,3.546,1.664a64.537,64.537,0,0,1,8.077,4.89q1.555,1.1,3.034,2.3c1.011.806,2,1.651,2.944,2.509a63.256,63.256,0,0,1,6.618,6.989c.9,1.1,1.766,2.227,2.586,3.392.461.64.9,1.293,1.331,1.958.525.794,1.037,1.587,1.523,2.419V95.4c.115.192.23.4.346.6.1.166.205.345.294.525h.013c.678,1.19,1.306,2.406,1.92,3.648a61.861,61.861,0,0,1,3.558,9.126c.307.947.576,1.92.819,2.893v.013c.077.294.154.6.217.9.307,1.254.576,2.534.794,3.814a63.075,63.075,0,0,1,.934,9.382C63.987,126.861,64,127.437,64,128Z" fill="#fff"/>
          <path id="パス_59" data-name="パス 59" d="M67.84,128H60.16c0-.486,0-.986-.026-1.472a57.842,57.842,0,0,0-.96-9.357c-.217-1.28-.5-2.534-.806-3.776-.32-1.267-.666-2.509-1.075-3.725a57.363,57.363,0,0,0-3.673-8.922c-.6-1.2-1.268-2.394-1.959-3.546-.243-.41-.486-.806-.729-1.2-.487-.768-.986-1.523-1.5-2.253h-.013c-.473-.7-.972-1.382-1.485-2.061a60.6,60.6,0,0,0-6.989-7.731c-.96-.9-1.958-1.754-2.983-2.586-.985-.819-2.009-1.6-3.059-2.342a60.193,60.193,0,0,0-8.051-4.851c-1.152-.576-2.33-1.126-3.52-1.626s-2.394-.96-3.61-1.395a58.068,58.068,0,0,0-9.344-2.406q-2-.364-4.032-.576C5,68.031,3.635,67.929,2.265,67.89,1.51,67.853.755,67.84,0,67.84V60.16c2.112,0,4.186.1,6.246.282q1.036.1,2.074.23c.717.077,1.421.179,2.125.294s1.382.218,2.074.358,1.382.256,2.061.422q.979.192,1.958.461c2.022.5,4.019,1.1,5.965,1.792.55.192,1.088.384,1.613.6,1.254.461,2.483.973,3.686,1.523s2.406,1.126,3.584,1.741a67.648,67.648,0,0,1,8.128,5.018c1.037.742,2.061,1.523,3.046,2.33,1.011.806,1.984,1.651,2.944,2.509a69.04,69.04,0,0,1,6.49,6.758c.845.985,1.651,2.01,2.419,3.046.793,1.062,1.562,2.163,2.291,3.277.358.538.7,1.088,1.05,1.638.716,1.165,1.408,2.342,2.061,3.558a.38.38,0,0,0,.077.141c.653,1.229,1.267,2.483,1.843,3.75Q63,102.635,64,105.5c.435,1.229.832,2.47,1.2,3.738.282.973.537,1.946.768,2.944v.013c.077.307.153.614.217.922.294,1.28.551,2.586.755,3.891a66.667,66.667,0,0,1,.87,9.523C67.84,127.014,67.84,127.514,67.84,128Z" fill="#fafafa"/>
        </g>
        <g id="グループ_37" data-name="グループ 37">
          <path id="パス_60" data-name="パス 60" d="M46.938,128H0V81.062c.589,0,1.165.013,1.754.038.141,0,.282,0,.435.013,1.152.051,2.3.154,3.443.282A47.349,47.349,0,0,1,14.8,83.443c1.229.41,2.432.87,3.609,1.37,1.2.512,2.394,1.088,3.546,1.7A45.992,45.992,0,0,1,30.5,92.326a44.34,44.34,0,0,1,3.635,3.469A1.386,1.386,0,0,1,34.33,96c.653.691,1.267,1.395,1.869,2.125.832,1.011,1.626,2.061,2.381,3.136s1.433,2.163,2.086,3.29a46.471,46.471,0,0,1,3.853,8.563c.41,1.216.768,2.445,1.075,3.7s.576,2.56.781,3.866A47.51,47.51,0,0,1,46.938,128Z" fill="#fff"/>
          <path id="パス_61" data-name="パス 61" d="M50.778,128H43.1a42.855,42.855,0,0,0-.346-5.478c-.179-1.357-.409-2.7-.7-4.006-.294-1.28-.64-2.547-1.037-3.776a42.637,42.637,0,0,0-3.866-8.563c-.653-1.114-1.357-2.2-2.112-3.251a37.348,37.348,0,0,0-2.419-3.059A43.218,43.218,0,0,0,28.838,96a43.355,43.355,0,0,0-7.59-5.478,38.619,38.619,0,0,0-3.622-1.843c-1.19-.538-2.406-1.024-3.648-1.446a42.662,42.662,0,0,0-9.152-2.061c-.627-.064-1.254-.128-1.882-.166-.666-.051-1.318-.077-1.984-.09C.64,84.9.32,84.9,0,84.9v-7.68c.41,0,.806,0,1.2.013.537.013,1.063.038,1.587.064,1.318.077,2.624.192,3.917.371a49.585,49.585,0,0,1,9.178,2.1c1.216.4,2.419.845,3.6,1.344s2.368,1.037,3.507,1.626a50.116,50.116,0,0,1,8.281,5.274c1.139.9,2.253,1.843,3.315,2.842,1.2,1.126,2.355,2.317,3.456,3.546.461.525.922,1.062,1.357,1.6l.486.6c.819,1.037,1.6,2.112,2.33,3.213.73,1.075,1.408,2.2,2.061,3.341a50,50,0,0,1,3.84,8.614c.409,1.2.768,2.432,1.088,3.674s.589,2.509.819,3.789A50.543,50.543,0,0,1,50.778,128Z" fill="#fafafa"/>
        </g>
        <g id="グループ_38" data-name="グループ 38">
          <path id="パス_62" data-name="パス 62" d="M29.862,127.795V128H0V98.138a29.793,29.793,0,0,1,21.44,9.075,30.067,30.067,0,0,1,2.483,2.906,30.08,30.08,0,0,1,2.112,3.251,29.434,29.434,0,0,1,3.379,9.485A29.645,29.645,0,0,1,29.862,127.795Z" fill="#fff"/>
          <path id="パス_63" data-name="パス 63" d="M33.7,128h-7.68c0-.538-.013-1.075-.064-1.6a25.554,25.554,0,0,0-2.906-10.445,24.224,24.224,0,0,0-2.073-3.328,24.286,24.286,0,0,0-2.484-2.906A25.923,25.923,0,0,0,0,101.977V94.3H.025a31.012,31.012,0,0,1,3.789.23.038.038,0,0,1,.051,0A32.423,32.423,0,0,1,10.572,96a33.5,33.5,0,0,1,13.913,8.883,28.385,28.385,0,0,1,2.471,2.931,29.866,29.866,0,0,1,2.138,3.213,32.482,32.482,0,0,1,3.635,8.986,30.22,30.22,0,0,1,.768,4.314A31.611,31.611,0,0,1,33.7,128Z" fill="#fafafa"/>
        </g>
        <g id="グループ_39" data-name="グループ 39">
          <path id="パス_64" data-name="パス 64" d="M12.8,128H0V115.2a12.773,12.773,0,0,1,9.587,4.326,12.605,12.605,0,0,1,2.189,3.482,11.952,11.952,0,0,1,.743,2.317A13.081,13.081,0,0,1,12.8,128Z" fill="#fff"/>
          <path id="パス_65" data-name="パス 65" d="M16.64,128H8.96a4.865,4.865,0,0,0-.038-.6v-.013a8.29,8.29,0,0,0-.6-2.714A9.1,9.1,0,0,0,7.3,122.8,8.949,8.949,0,0,0,0,119.04v-7.68a16.638,16.638,0,0,1,12.006,5.12,16.575,16.575,0,0,1,2.355,3.136,16.121,16.121,0,0,1,1.7,4.07,15.083,15.083,0,0,1,.473,2.522A16.373,16.373,0,0,1,16.64,128Z" fill="#fafafa"/>
        </g>
      </g>
      <g id="グループ_45" data-name="グループ 45">
        <g id="グループ_41" data-name="グループ 41">
          <path id="パス_66" data-name="パス 66" d="M128,64v64H64c0-.563.013-1.139.026-1.7a63.076,63.076,0,0,1,.934-9.382c.217-1.28.486-2.56.794-3.814.064-.307.141-.6.217-.909v-.013c.243-.973.512-1.933.819-2.88a61.818,61.818,0,0,1,3.558-9.126c.614-1.242,1.242-2.458,1.92-3.648.1-.179.205-.358.307-.525.115-.205.23-.41.346-.6v-.013c.486-.832,1-1.625,1.523-2.419.435-.666.871-1.318,1.331-1.958.819-1.165,1.69-2.291,2.586-3.392a63.161,63.161,0,0,1,6.618-6.989c.947-.858,1.933-1.7,2.944-2.509q1.479-1.209,3.034-2.3a64.537,64.537,0,0,1,8.077-4.89c1.165-.589,2.342-1.152,3.546-1.664s2.406-1.011,3.635-1.446a61.6,61.6,0,0,1,9.446-2.611c1.344-.282,2.688-.5,4.058-.678h.013c1.383-.166,2.765-.307,4.16-.384C125.248,64.038,126.618,64,128,64Z" fill="#fff"/>
          <path id="パス_67" data-name="パス 67" d="M128,60.16v7.68c-.755,0-1.51.013-2.266.051-1.37.038-2.739.141-4.083.282s-2.7.333-4.032.576a58.175,58.175,0,0,0-9.344,2.406c-1.216.435-2.419.9-3.61,1.395s-2.368,1.05-3.52,1.626a60.3,60.3,0,0,0-8.051,4.851c-1.05.742-2.074,1.523-3.059,2.342-1.024.832-2.022,1.69-2.982,2.586a60.666,60.666,0,0,0-6.989,7.731c-.512.678-1.011,1.357-1.485,2.061-.525.73-1.024,1.485-1.511,2.253-.243.4-.486.794-.729,1.2-.691,1.152-1.357,2.342-1.959,3.546a57.226,57.226,0,0,0-3.673,8.922c-.41,1.216-.755,2.458-1.075,3.725-.307,1.242-.589,2.5-.806,3.776a57.83,57.83,0,0,0-.96,9.357c-.026.486-.026.986-.026,1.472H60.16c0-.486,0-.986.026-1.472a66.812,66.812,0,0,1,.87-9.523c.205-1.306.461-2.611.755-3.891.064-.307.141-.6.218-.909v-.013q.346-1.5.768-2.957c.371-1.267.768-2.509,1.2-3.738q1-2.86,2.266-5.606c.576-1.267,1.19-2.522,1.843-3.75A.4.4,0,0,0,68.186,96c.653-1.216,1.344-2.394,2.061-3.558.346-.55.691-1.1,1.05-1.638.73-1.114,1.5-2.215,2.291-3.277.768-1.037,1.574-2.061,2.419-3.046a68.813,68.813,0,0,1,6.49-6.758c.96-.858,1.933-1.7,2.944-2.509.986-.806,2.01-1.587,3.046-2.33a67.647,67.647,0,0,1,8.128-5.018c1.177-.614,2.368-1.2,3.584-1.741s2.432-1.063,3.686-1.523c.525-.218,1.063-.41,1.613-.6,1.946-.691,3.943-1.293,5.965-1.792q.979-.269,1.958-.461c.679-.166,1.37-.294,2.061-.422s1.382-.256,2.074-.358,1.408-.218,2.125-.294q1.037-.135,2.074-.23C123.814,60.262,125.888,60.16,128,60.16Z" fill="#fafafa"/>
        </g>
        <g id="グループ_42" data-name="グループ 42">
          <path id="パス_68" data-name="パス 68" d="M128,81.062V128H81.063a47.532,47.532,0,0,1,.563-7.322c.205-1.306.474-2.6.781-3.866s.666-2.483,1.075-3.7a46.405,46.405,0,0,1,3.853-8.563c.653-1.126,1.344-2.227,2.086-3.29s1.549-2.125,2.381-3.136c.6-.73,1.216-1.434,1.869-2.125a1.386,1.386,0,0,1,.192-.205A44.342,44.342,0,0,1,97.5,92.325a45.926,45.926,0,0,1,8.551-5.811c1.152-.614,2.342-1.19,3.546-1.7,1.177-.5,2.381-.96,3.609-1.37a47.349,47.349,0,0,1,9.165-2.048c1.139-.128,2.291-.23,3.443-.282.154-.013.294-.013.435-.013C126.835,81.075,127.411,81.062,128,81.062Z" fill="#fff"/>
          <path id="パス_69" data-name="パス 69" d="M128,77.222V84.9c-.32,0-.64,0-.96.013-.666.013-1.318.038-1.984.09-.627.038-1.254.1-1.882.166a42.6,42.6,0,0,0-9.152,2.061c-1.242.422-2.458.909-3.648,1.446a38.376,38.376,0,0,0-3.622,1.843,42.983,42.983,0,0,0-11.366,9.344,37.519,37.519,0,0,0-2.419,3.059c-.755,1.05-1.459,2.138-2.112,3.251a42.693,42.693,0,0,0-3.866,8.563c-.4,1.229-.743,2.5-1.037,3.776-.294,1.306-.525,2.65-.7,4.006A42.854,42.854,0,0,0,84.9,128h-7.68a50.682,50.682,0,0,1,.755-8.768c.231-1.28.5-2.547.819-3.789s.678-2.47,1.088-3.674a50,50,0,0,1,3.84-8.614c.653-1.139,1.331-2.266,2.061-3.341.73-1.1,1.51-2.176,2.33-3.213L88.6,96c.435-.538.9-1.075,1.357-1.6,1.1-1.229,2.253-2.419,3.456-3.546,1.063-1,2.176-1.946,3.315-2.842a50.166,50.166,0,0,1,8.282-5.274c1.139-.589,2.317-1.139,3.507-1.626s2.381-.947,3.6-1.344a49.494,49.494,0,0,1,9.177-2.1c1.293-.179,2.6-.294,3.917-.371.525-.026,1.05-.051,1.587-.064C127.194,77.222,127.59,77.222,128,77.222Z" fill="#fafafa"/>
        </g>
        <g id="グループ_43" data-name="グループ 43">
          <path id="パス_70" data-name="パス 70" d="M128,98.138V128H98.137v-.205a29.881,29.881,0,0,1,.448-4.941,29.458,29.458,0,0,1,3.379-9.485A29.869,29.869,0,0,1,128,98.138Z" fill="#fff"/>
          <path id="パス_71" data-name="パス 71" d="M128,94.3v7.68a25.923,25.923,0,0,0-18.5,7.744,25.838,25.838,0,0,0-4.556,6.234,25.549,25.549,0,0,0-2.906,10.445c-.051.525-.064,1.062-.064,1.6H94.3a31.611,31.611,0,0,1,.205-3.674,29.943,29.943,0,0,1,.768-4.314,32.482,32.482,0,0,1,3.635-8.986,29.857,29.857,0,0,1,2.137-3.213,28.032,28.032,0,0,1,2.471-2.931A33.5,33.5,0,0,1,117.428,96a32.423,32.423,0,0,1,6.707-1.472.038.038,0,0,1,.051,0,30.814,30.814,0,0,1,3.789-.23Z" fill="#fafafa"/>
        </g>
        <g id="グループ_44" data-name="グループ 44">
          <path id="パス_72" data-name="パス 72" d="M128,115.2V128H115.2a13.081,13.081,0,0,1,.282-2.675,11.928,11.928,0,0,1,.743-2.317,12.582,12.582,0,0,1,2.189-3.482A12.769,12.769,0,0,1,128,115.2Z" fill="#fff"/>
          <path id="パス_73" data-name="パス 73" d="M128,111.36v7.68a8.947,8.947,0,0,0-7.3,3.763,9.1,9.1,0,0,0-1.024,1.869,8.386,8.386,0,0,0-.6,2.726,4.679,4.679,0,0,0-.038.6h-7.68a16.628,16.628,0,0,1,.1-1.792,15.1,15.1,0,0,1,.473-2.522,16.118,16.118,0,0,1,1.7-4.07A16.566,16.566,0,0,1,128,111.36Z" fill="#fafafa"/>
        </g>
      </g>
    </g>
    <g id="グループ_51" data-name="グループ 51">
      <g id="グループ_50" data-name="グループ 50">
        <g id="グループ_47" data-name="グループ 47">
          <path id="パス_74" data-name="パス 74" d="M119.424,128H8.576c.115-.205.23-.41.346-.6v-.013c.487-.832,1-1.625,1.523-2.419.435-.666.871-1.318,1.331-1.958.819-1.165,1.69-2.291,2.586-3.392a63.255,63.255,0,0,1,6.618-6.989c.947-.858,1.932-1.7,2.944-2.509q1.479-1.209,3.034-2.3a64.537,64.537,0,0,1,8.077-4.89c1.165-.589,2.342-1.152,3.546-1.664s2.406-1.011,3.635-1.446A61.6,61.6,0,0,1,51.662,97.2c1.344-.282,2.688-.5,4.058-.678h.013c1.383-.166,2.765-.307,4.16-.384C61.248,96.038,62.618,96,64,96s2.752.038,4.109.141c1.395.077,2.777.218,4.16.384s2.727.4,4.071.678a61.712,61.712,0,0,1,9.446,2.611c1.229.435,2.445.922,3.635,1.446s2.381,1.075,3.546,1.664a64.537,64.537,0,0,1,8.077,4.89q1.556,1.1,3.034,2.3c1.011.806,2,1.651,2.944,2.509a63.256,63.256,0,0,1,6.618,6.989c.9,1.1,1.766,2.227,2.586,3.392.461.64.9,1.293,1.331,1.958.525.794,1.037,1.6,1.523,2.432C119.194,127.59,119.309,127.795,119.424,128Z" fill="#fff"/>
          <path id="パス_75" data-name="パス 75" d="M123.814,128h-8.883c-.487-.768-.986-1.523-1.511-2.253-.473-.7-.973-1.382-1.485-2.061a60.524,60.524,0,0,0-6.989-7.731c-.96-.9-1.958-1.754-2.982-2.586-.985-.819-2.009-1.6-3.059-2.342a60.193,60.193,0,0,0-8.051-4.851c-1.152-.576-2.33-1.126-3.52-1.626s-2.394-.96-3.61-1.395a58.068,58.068,0,0,0-9.344-2.406q-2-.364-4.032-.576c-1.344-.141-2.713-.243-4.083-.282-.755-.038-1.51-.051-2.265-.051s-1.51.013-2.266.051c-1.37.038-2.739.141-4.083.282s-2.7.333-4.032.576a58.175,58.175,0,0,0-9.344,2.406c-1.216.435-2.419.9-3.61,1.395s-2.368,1.05-3.52,1.626a60.3,60.3,0,0,0-8.051,4.851c-1.05.742-2.074,1.523-3.059,2.342-1.024.832-2.022,1.69-2.983,2.586a60.666,60.666,0,0,0-6.989,7.731c-.512.678-1.011,1.357-1.485,2.061-.525.73-1.024,1.485-1.511,2.253H4.186c.653-1.216,1.344-2.394,2.061-3.558.346-.55.691-1.1,1.05-1.638.73-1.114,1.5-2.215,2.291-3.277.768-1.037,1.574-2.061,2.419-3.046a68.813,68.813,0,0,1,6.49-6.758c.96-.858,1.933-1.7,2.944-2.509.986-.806,2.01-1.587,3.046-2.33a67.647,67.647,0,0,1,8.128-5.018c1.178-.614,2.368-1.2,3.584-1.741s2.432-1.063,3.686-1.523c.525-.218,1.063-.41,1.613-.6,1.946-.691,3.942-1.293,5.965-1.792q.979-.269,1.958-.461h.013c.678-.166,1.357-.294,2.048-.422s1.382-.256,2.074-.358,1.408-.218,2.125-.294h.013c.691-.09,1.37-.166,2.061-.23,2.061-.179,4.134-.282,6.246-.282s4.186.1,6.246.282c.691.064,1.37.141,2.061.23h.013c.717.077,1.421.179,2.125.294s1.382.218,2.074.358,1.382.256,2.061.422q.979.192,1.958.461c2.022.5,4.019,1.1,5.965,1.792.55.192,1.088.384,1.613.6,1.254.461,2.483.973,3.686,1.523s2.407,1.126,3.584,1.741a67.648,67.648,0,0,1,8.128,5.018c1.037.742,2.061,1.523,3.046,2.33,1.011.806,1.984,1.651,2.944,2.509a69.039,69.039,0,0,1,6.49,6.758c.845.985,1.651,2.01,2.419,3.046.794,1.062,1.562,2.163,2.291,3.277.358.538.7,1.088,1.05,1.638C122.47,125.606,123.162,126.784,123.814,128Z" fill="#fafafa"/>
        </g>
        <g id="グループ_48" data-name="グループ 48">
          <path id="パス_76" data-name="パス 76" d="M98.33,128H29.67a1.386,1.386,0,0,1,.192-.205,44.342,44.342,0,0,1,3.635-3.469,45.926,45.926,0,0,1,8.551-5.811c1.152-.614,2.342-1.19,3.546-1.7,1.177-.5,2.381-.96,3.609-1.37a47.349,47.349,0,0,1,9.165-2.048c1.139-.128,2.291-.23,3.443-.282.153-.013.294-.013.435-.013.589-.026,1.165-.038,1.754-.038s1.165.013,1.754.038c.141,0,.282,0,.435.013,1.152.051,2.3.154,3.443.282a47.349,47.349,0,0,1,9.165,2.048c1.229.41,2.432.87,3.609,1.37,1.2.512,2.394,1.088,3.546,1.7a45.992,45.992,0,0,1,8.551,5.811,44.341,44.341,0,0,1,3.635,3.469A1.5,1.5,0,0,1,98.33,128Z" fill="#fff"/>
          <path id="パス_77" data-name="パス 77" d="M103.4,128H92.838a43.355,43.355,0,0,0-7.59-5.478,38.619,38.619,0,0,0-3.622-1.843c-1.19-.538-2.406-1.024-3.648-1.446a42.662,42.662,0,0,0-9.152-2.061c-.627-.064-1.254-.128-1.882-.166-.666-.051-1.318-.077-1.984-.09-.32-.013-.64-.013-.96-.013s-.64,0-.96.013c-.666.013-1.318.038-1.984.09-.627.038-1.254.1-1.882.166a42.6,42.6,0,0,0-9.152,2.061c-1.242.422-2.458.909-3.648,1.446a38.514,38.514,0,0,0-3.623,1.843A43.407,43.407,0,0,0,35.161,128H24.6c.435-.538.9-1.075,1.357-1.6,1.1-1.229,2.253-2.419,3.456-3.546,1.063-1,2.176-1.946,3.315-2.842a50.167,50.167,0,0,1,8.282-5.274c1.139-.589,2.317-1.139,3.507-1.626s2.381-.947,3.6-1.344a49.486,49.486,0,0,1,9.178-2.1c1.293-.179,2.6-.294,3.917-.371.525-.026,1.05-.051,1.587-.064.4-.013.793-.013,1.2-.013s.806,0,1.2.013c.537.013,1.063.038,1.587.064,1.318.077,2.624.192,3.917.371a49.557,49.557,0,0,1,9.177,2.1c1.216.4,2.419.845,3.6,1.344s2.368,1.037,3.507,1.626a50.166,50.166,0,0,1,8.282,5.274c1.139.9,2.253,1.843,3.315,2.842,1.2,1.126,2.355,2.317,3.456,3.546C102.5,126.925,102.963,127.462,103.4,128Z" fill="#fafafa"/>
        </g>
        <g id="グループ_49" data-name="グループ 49">
          <path id="パス_78" data-name="パス 78" d="M74.573,128H53.427a32.423,32.423,0,0,1,6.707-1.472.038.038,0,0,1,.051,0,30.814,30.814,0,0,1,3.789-.23h.052a31.012,31.012,0,0,1,3.789.23.038.038,0,0,1,.051,0A32.423,32.423,0,0,1,74.573,128Z" fill="#fafafa"/>
        </g>
      </g>
    </g>
    <g id="グループ_56" data-name="グループ 56">
      <g id="グループ_53" data-name="グループ 53">
        <g id="グループ_52" data-name="グループ 52">
          <path id="パス_79" data-name="パス 79" d="M22.5,128H0v-3.84c2.112,0,4.186.1,6.246.282q1.036.1,2.074.23c.717.077,1.421.179,2.125.294s1.382.218,2.074.358,1.382.256,2.061.422q.979.192,1.958.461C18.56,126.707,20.557,127.309,22.5,128Z" fill="#fafafa"/>
        </g>
      </g>
      <g id="グループ_55" data-name="グループ 55">
        <g id="グループ_54" data-name="グループ 54">
          <path id="パス_80" data-name="パス 80" d="M128,124.16V128H105.5c1.946-.691,3.943-1.293,5.965-1.792q.979-.269,1.958-.461c.679-.166,1.37-.294,2.061-.422s1.382-.256,2.074-.358,1.408-.218,2.125-.294q1.037-.135,2.074-.23C123.814,124.262,125.888,124.16,128,124.16Z" fill="#fafafa"/>
        </g>
      </g>
    </g>
  </g>
</svg>
